<?xml version="1.0" encoding="utf-8"?>
<!-- Generator: Adobe Illustrator 23.1.0, SVG Export Plug-In . SVG Version: 6.00 Build 0)  -->
<svg version="1.1" id="Layer_1" xmlns="http://www.w3.org/2000/svg" xmlns:xlink="http://www.w3.org/1999/xlink" x="0px" y="0px"
	 viewBox="0 0 243.8 243.8" style="enable-background:new 0 0 243.8 243.8;" xml:space="preserve">
<style type="text/css">
	.st0{fill:none;stroke:#231F20;stroke-width:0.5;stroke-miterlimit:10;}
</style>
<path class="st0" d="M89.4,101.6H68.6c-2.9,0-5.2-2.3-5.2-5.2V75.6c0-2.9,2.3-5.2,5.2-5.2h20.8c2.9,0,5.2,2.3,5.2,5.2v20.8
	C94.6,99.2,92.3,101.6,89.4,101.6z"/>
<path class="st0" d="M174.4,101.6h-20.8c-2.9,0-5.2-2.3-5.2-5.2V75.6c0-2.9,2.3-5.2,5.2-5.2h20.8c2.9,0,5.2,2.3,5.2,5.2v20.8
	C179.6,99.2,177.3,101.6,174.4,101.6z"/>
<path class="st0" d="M89.4,173.8H68.6c-2.9,0-5.2-2.3-5.2-5.2v-20.8c0-2.9,2.3-5.2,5.2-5.2h20.8c2.9,0,5.2,2.3,5.2,5.2v20.8
	C94.6,171.5,92.3,173.8,89.4,173.8z"/>
<path class="st0" d="M174.4,173.8h-20.8c-2.9,0-5.2-2.3-5.2-5.2v-20.8c0-2.9,2.3-5.2,5.2-5.2h20.8c2.9,0,5.2,2.3,5.2,5.2v20.8
	C179.6,171.5,177.3,173.8,174.4,173.8z"/>
</svg>
