<?xml version="1.0" encoding="utf-8"?>
<!-- Generator: Adobe Illustrator 23.1.0, SVG Export Plug-In . SVG Version: 6.00 Build 0)  -->
<svg version="1.1" id="Layer_1" xmlns="http://www.w3.org/2000/svg" xmlns:xlink="http://www.w3.org/1999/xlink" x="0px" y="0px"
	 viewBox="0 0 243.8 243.8" style="enable-background:new 0 0 243.8 243.8;" xml:space="preserve">
<style type="text/css">
	.st0{fill:none;stroke:#231F20;stroke-width:0.5;stroke-miterlimit:10;}
	.st1{fill:none;stroke:#231F20;stroke-width:0.5;stroke-linecap:round;stroke-linejoin:round;stroke-miterlimit:10;}
</style>
<path class="st0" d="M131.9,137.7h-20.8c-2.9,0-5.2-2.3-5.2-5.2v-20.8c0-2.9,2.3-5.2,5.2-5.2h20.8c2.9,0,5.2,2.3,5.2,5.2v20.8
	C137.1,135.4,134.8,137.7,131.9,137.7z"/>
<g>
	<polyline class="st1" points="80.7,116.3 75.2,122.1 81.6,127.9 	"/>
	<polyline class="st1" points="65.1,127.9 71.5,122.1 65.6,116.3 	"/>
	<line class="st1" x1="73.3" y1="112.7" x2="73.3" y2="131.5"/>
	<path class="st0" d="M83.7,137.7H62.9c-2.9,0-5.2-2.3-5.2-5.2v-20.8c0-2.9,2.3-5.2,5.2-5.2h20.8c2.9,0,5.2,2.3,5.2,5.2v20.8
		C88.9,135.4,86.6,137.7,83.7,137.7z"/>
</g>
<g>
	<polyline class="st1" points="167.4,116.3 160.9,122.1 167.4,127.9 	"/>
	<polyline class="st1" points="172.1,127.9 178.5,122.1 172.1,116.3 	"/>
	<line class="st1" x1="169.7" y1="112.7" x2="169.7" y2="131.5"/>
	<path class="st0" d="M180.1,137.7h-20.8c-2.9,0-5.2-2.3-5.2-5.2v-20.8c0-2.9,2.3-5.2,5.2-5.2h20.8c2.9,0,5.2,2.3,5.2,5.2v20.8
		C185.3,135.4,183,137.7,180.1,137.7z"/>
</g>
</svg>
