<?xml version="1.0" encoding="utf-8"?>
<!-- Generator: Adobe Illustrator 23.1.0, SVG Export Plug-In . SVG Version: 6.00 Build 0)  -->
<svg version="1.1" id="Layer_1" xmlns="http://www.w3.org/2000/svg" xmlns:xlink="http://www.w3.org/1999/xlink" x="0px" y="0px"
	 viewBox="0 0 243.8 243.8" style="enable-background:new 0 0 243.8 243.8;" xml:space="preserve">
<style type="text/css">
	.st0{fill:none;stroke:#231F20;stroke-width:0.5;stroke-linecap:round;stroke-linejoin:round;stroke-miterlimit:10;}
	.st1{fill:none;stroke:#231F20;stroke-width:0.5;stroke-miterlimit:10;}
</style>
<g>
	<polyline class="st0" points="126.9,78.6 121.5,69.2 116.1,78.6 	"/>
</g>
<g>
	<polyline class="st0" points="116.1,165.6 121.5,175 126.9,165.6 	"/>
</g>
<path class="st1" d="M105.9,84.3V63.5c0-2.9,2.3-5.2,5.2-5.2h20.8c2.9,0,5.2,2.3,5.2,5.2v20.8c0,2.9-2.3,5.2-5.2,5.2h-20.8
	C108.3,89.5,105.9,87.2,105.9,84.3z"/>
<path class="st1" d="M105.9,132.5v-20.8c0-2.9,2.3-5.2,5.2-5.2h20.8c2.9,0,5.2,2.3,5.2,5.2v20.8c0,2.9-2.3,5.2-5.2,5.2h-20.8
	C108.3,137.7,105.9,135.4,105.9,132.5z"/>
<path class="st1" d="M105.9,180.7v-20.8c0-2.9,2.3-5.2,5.2-5.2h20.8c2.9,0,5.2,2.3,5.2,5.2v20.8c0,2.9-2.3,5.2-5.2,5.2h-20.8
	C108.3,185.9,105.9,183.6,105.9,180.7z"/>
</svg>
