<?xml version="1.0" encoding="utf-8"?>
<!-- Generator: Adobe Illustrator 23.1.0, SVG Export Plug-In . SVG Version: 6.00 Build 0)  -->
<svg version="1.1" id="Layer_1" xmlns="http://www.w3.org/2000/svg" xmlns:xlink="http://www.w3.org/1999/xlink" x="0px" y="0px"
	 viewBox="0 0 243.8 243.8" style="enable-background:new 0 0 243.8 243.8;" xml:space="preserve">
<style type="text/css">
	.st0{fill:none;stroke:#231F20;stroke-width:0.5;stroke-miterlimit:10;}
</style>
<g>
	<g>
		<g>
			<path class="st0" d="M100.9,150.3c-5.4,0-9.8-4.2-9.8-9.4v-8h5.6v-3.2c-5.3-1.7-8.9-6.4-8.9-11.9c0-3.9,1.9-7.6,5.2-10V97.2h15.7
				v10.7c3.3,2.4,5.2,6.1,5.2,10c0,5.5-3.6,10.2-8.9,11.9v3.2h5.6v8C110.7,146.1,106.3,150.3,100.9,150.3"/>
		</g>
		<g>
			<path class="st0" d="M89.9,191.5H77.6l-0.2-4.1H54.5v-16.6h7.2l4.9-5.2h10.8v-3.8h9.1v16.3l3.5,6.2V191.5z"/>
		</g>
		<g>
			<path class="st0" d="M124.2,191.5h-12.4v-7.2l3.5-6.2v-16.3h9v3.8h10.8l4.9,5.2h7.2v16.6h-22.8L124.2,191.5z"/>
		</g>
		<g>
			<g>
				<path class="st0" d="M200.3,200.3H43.4V43.4h156.9V200.3z"/>
			</g>
		</g>
	</g>
	<g>
		<path class="st0" d="M176.2,109.4h23.2V48.9h-23.2V109.4z"/>
	</g>
	<g>
		<line class="st0" x1="176.2" y1="99.8" x2="199.4" y2="99.8"/>
	</g>
	<g>
		<path class="st0" d="M180.7,123.2h14v-5.4h-14V123.2z"/>
	</g>
</g>
</svg>
