<?xml version="1.0" encoding="utf-8"?>
<!-- Generator: Adobe Illustrator 23.1.0, SVG Export Plug-In . SVG Version: 6.00 Build 0)  -->
<svg version="1.1" id="Layer_1" xmlns="http://www.w3.org/2000/svg" xmlns:xlink="http://www.w3.org/1999/xlink" x="0px" y="0px"
	 viewBox="0 0 243.8 243.8" style="enable-background:new 0 0 243.8 243.8;" xml:space="preserve">
<style type="text/css">
	.st0{fill:none;stroke:#000000;stroke-miterlimit:10;}
	.st1{fill:#030303;stroke:#252525;stroke-miterlimit:10;}
	.st2{fill:#636362;}
	.st3{fill:#B5B5B5;}
	.st4{fill:#545657;}
	.st5{fill:url(#SVGID_1_);stroke:#7E2322;stroke-miterlimit:10;}
	.st6{fill:#020202;}
	.st7{fill:#111111;}
	.st8{opacity:0.4;fill:none;stroke:#000000;stroke-width:1.2;stroke-miterlimit:10;}
	.st9{filter:url(#Adobe_OpacityMaskFilter);}
	.st10{mask:url(#SVGID_2_);}
	.st11{filter:url(#Adobe_OpacityMaskFilter_1_);}
	.st12{fill:none;stroke:#000000;stroke-width:13;stroke-miterlimit:10;}
</style>
<g>
	<path class="st0" d="M100,77.7H61.8c-1.1,0-2.1-0.9-2.1-2.1V60.9c0-1.1,0.9-2.1,2.1-2.1H100c1.1,0,2.1,0.9,2.1,2.1v14.7
		C102,76.8,101.1,77.7,100,77.7z"/>
	<path class="st1" d="M99.3,76.8H62.5c-1.1,0-1.9-0.9-1.9-1.9V61.6c0-1.1,0.9-1.9,1.9-1.9h36.8c1.1,0,1.9,0.9,1.9,1.9v13.3
		C101.2,75.9,100.4,76.8,99.3,76.8z"/>
	<path class="st2" d="M96.8,68.8H64.2c-0.2,0-0.4-0.2-0.4-0.4v-3.8c0-0.2,0.2-0.4,0.4-0.4h32.6c0.2,0,0.4,0.2,0.4,0.4v3.8
		C97.3,68.6,97.1,68.8,96.8,68.8z"/>
	<rect x="60" y="61.7" class="st3" width="0.9" height="13.5"/>
	<rect x="100.7" y="61.6" class="st4" width="0.4" height="13.5"/>
	<path class="st0" d="M180.8,77.7h-38.2c-1.1,0-2.1-0.9-2.1-2.1V60.9c0-1.1,0.9-2.1,2.1-2.1h38.2c1.1,0,2.1,0.9,2.1,2.1v14.7
		C182.9,76.8,181.9,77.7,180.8,77.7z"/>
	<path class="st1" d="M180.1,76.8h-36.8c-1.1,0-1.9-0.9-1.9-1.9V61.6c0-1.1,0.9-1.9,1.9-1.9h36.8c1.1,0,1.9,0.9,1.9,1.9v13.3
		C182.1,75.9,181.2,76.8,180.1,76.8z"/>
	<path class="st2" d="M177.7,68.8H145c-0.2,0-0.4-0.2-0.4-0.4v-3.8c0-0.2,0.2-0.4,0.4-0.4h32.6c0.2,0,0.4,0.2,0.4,0.4v3.8
		C178.1,68.6,177.9,68.8,177.7,68.8z"/>
	<rect x="140.9" y="61.7" class="st3" width="0.9" height="13.5"/>
	<rect x="181.6" y="61.6" class="st4" width="0.4" height="13.5"/>
	<radialGradient id="SVGID_1_" cx="121.75" cy="68.2316" r="2.3382" gradientUnits="userSpaceOnUse">
		<stop  offset="0" style="stop-color:#C70000"/>
		<stop  offset="1" style="stop-color:#000000"/>
	</radialGradient>
	<circle class="st5" cx="121.8" cy="68.2" r="2.3"/>
	<g>
		<path class="st6" d="M127.1,140.5c0,4.8-3.4,8.8-7.9,9.7c0.7,0.1,1.4,0.2,2.1,0.2c5.5,0,9.9-4.5,9.9-9.9v-7h-4.1V140.5z"/>
		<path class="st6" d="M125.3,130.2c5.1-1.7,8.8-6.5,8.8-12.1c0-4.1-1.9-7.7-4.9-10V97.3h-4.1v10.8c3,2.3,4.9,5.9,4.9,10
			c0,5.7-3.7,10.5-8.8,12.1v3.2h4.1V130.2z"/>
	</g>
	<path class="st7" d="M127.1,140.5v-7h-1.8h-4.1v-3.2c5.1-1.7,8.8-6.5,8.8-12.1c0-4.1-1.9-7.7-4.9-10V97.3h-11.7v10.8
		c-3,2.3-4.9,5.9-4.9,10c0,5.7,3.7,10.5,8.8,12.1v3.2h-4.1h-1.8v7c0,4.8,3.4,8.8,7.9,9.7C123.7,149.2,127.1,145.3,127.1,140.5z"/>
	<polygon class="st7" points="98,163 106.4,163 106.4,179.2 109.8,185.1 109.8,192 98,192 98,187.7 74.8,187.7 74.8,172.2 
		82.3,172.2 86.9,166.7 98,166.7 	"/>
	<polygon class="st7" points="144.8,163 136.5,163 136.5,179.2 133.1,185.1 133.1,192 144.8,192 144.8,187.7 168,187.7 168,172.2 
		160.5,172.2 156,166.7 144.8,166.7 	"/>
	<polygon class="st6" points="103.2,163 103.2,178.2 106.4,183.5 106.4,189.8 98,189.8 98,192 109.8,192 109.8,185.1 106.4,179.2 
		106.4,163 	"/>
	<polygon class="st6" points="74.8,185.5 94.9,185.5 98,187.7 74.8,187.7 	"/>
	<polygon class="st6" points="133.1,190.4 140.9,190.4 140.9,186.2 163.6,186.2 163.6,172.2 168,172.2 168,187.7 144.8,187.7 
		144.8,192 133.1,192.2 	"/>
	<polygon class="st6" points="137.1,163.5 139.6,165.7 144.8,165.7 144.8,163 137.1,163 	"/>
	<polygon class="st6" points="152.8,167.1 157,171.8 160.2,171.8 156,166.7 152.3,166.7 	"/>
	<path class="st8" d="M193.9,200.9H49.8c-3.5,0-6.4-2.9-6.4-6.4V49.8c0-3.5,2.9-6.4,6.4-6.4h144.2c3.5,0,6.4,2.9,6.4,6.4v144.6
		C200.4,198,197.5,200.9,193.9,200.9z"/>
	<g>
		<defs>
			<filter id="Adobe_OpacityMaskFilter" filterUnits="userSpaceOnUse" x="36.9" y="36.9" width="170" height="170.5">
				<feFlood  style="flood-color:white;flood-opacity:1" result="back"/>
				<feBlend  in="SourceGraphic" in2="back" mode="normal"/>
			</filter>
		</defs>
		<mask maskUnits="userSpaceOnUse" x="36.9" y="36.9" width="170" height="170.5" id="SVGID_2_">
			<g class="st9">
				<image style="overflow:visible;" width="175" height="175" xlink:href="185A34CA.jpg"  transform="matrix(1 0 0 1 34 34.8)">
				</image>
			</g>
		</mask>
		<g class="st10">
			<defs>
				<filter id="Adobe_OpacityMaskFilter_1_" filterUnits="userSpaceOnUse" x="36.9" y="36.9" width="170" height="170.5">
					<feFlood  style="flood-color:white;flood-opacity:1" result="back"/>
					<feBlend  in="SourceGraphic" in2="back" mode="normal"/>
				</filter>
			</defs>
			<mask maskUnits="userSpaceOnUse" x="36.9" y="36.9" width="170" height="170.5" id="SVGID_2_">
				<g class="st11">
					<image style="overflow:visible;" width="175" height="175" xlink:href="185A34CE.jpg"  transform="matrix(1 0 0 1 34 34.8)">
					</image>
				</g>
			</mask>
			<g>
				<path class="st12" d="M193.9,200.9H49.8c-3.5,0-6.4-2.9-6.4-6.4V49.8c0-3.5,2.9-6.4,6.4-6.4h144.2c3.5,0,6.4,2.9,6.4,6.4v144.6
					C200.4,198,197.5,200.9,193.9,200.9z"/>
			</g>
		</g>
	</g>
</g>
</svg>
